# xmcd
#
# Track frame offsets:
#	183
#	11478
#	25040
#	38808
#	58350
#	72160
#	89883
#	103568
#	117355
#	133418
#	153195
#	167863
#	177718
#	189488
#	201475
#	211295
#
# Disc length: 2968 seconds
#
# Revision: 12
# Processed by: cddbd v1.5.2PL0 Copyright (c) Steve Scherf et al.
# Submitted via: audiograbber 1.83.01
#
DISCID=f00b9610
DTITLE=Various  - Play Me The Blues... The Legendary Blues Singers [CD 3-10)
DYEAR=1991
DGENRE=Blues
TTITLE0=John Lee Hooker - Boom Boom
TTITLE1=Johnny Guitar Watson - Someone Cares For Me
TTITLE2=Muddy Waters - I'm Ready
TTITLE3=Sonny Boy Williamson II. - I'm Gonna Put You Down
TTITLE4=Little Walter - You're So Fine
TTITLE5=Mike Bloomfield - Linda Lou
TTITLE6=Leadbelly  - Medley: Look, Looky Yonder - Black Betty
TTITLE7=B.B. King - Paying The Cost To Be The Boss
TTITLE8=Howlin' Wolf - Blue Bird
TTITLE9=John Mayall - Road Show
TTITLE10=Memphis Slim - I'm Crying
TTITLE11=John Lee Hooker - I Wanna Walk
TTITLE12=Muddy Waters - Goin' Home
TTITLE13=Elmore James - Pickin' The Blues
TTITLE14=Alice Cooper - Goin' To The River
TTITLE15=Big Joe Williams - Bye, Bye Baby Blues
EXTD=
EXTT0=
EXTT1=
EXTT2=
EXTT3=
EXTT4=
EXTT5=
EXTT6=
EXTT7=
EXTT8=
EXTT9=
EXTT10=
EXTT11=
EXTT12=
EXTT13=
EXTT14=
EXTT15=
PLAYORDER=
